<svg
  width="433.3"
  height="68.001"
  viewBox="0 0 433.3 68.001"
  xmlns="http://www.w3.org/2000/svg"
><g
    id="svgGroup"
    stroke-linecap="round"
    fill-rule="evenodd"
    font-size="9pt"
    stroke="#000"
    stroke-width="0.25mm"
    fill="#000000"
    style="stroke:#000;stroke-width:0.25mm;fill:#000000"
  ><path
      d="M 47.5 48.7 L 47.5 66.5 L 0 66.5 L 0 58.4 L 3.3 58.1 A 5.033 5.033 0 0 0 4.456 57.854 Q 5.984 57.315 6.173 55.76 A 3.808 3.808 0 0 0 6.2 55.3 L 6.2 8.8 L 0.5 8.5 L 0.5 0 L 46.3 0 L 46.3 16.6 L 36.1 17.3 L 36.1 13.3 A 9.205 9.205 0 0 0 36.069 12.512 Q 35.975 11.425 35.6 10.9 A 1.24 1.24 0 0 0 35.129 10.52 Q 34.484 10.2 33.2 10.2 L 18.4 10.2 L 18.4 27.3 L 41.5 27.3 L 41.5 37.5 L 18.4 37.5 L 18.4 56.2 L 34.5 56.2 A 6.677 6.677 0 0 0 35.261 56.16 Q 36.415 56.027 36.8 55.45 A 2.323 2.323 0 0 0 37.069 54.872 Q 37.258 54.285 37.292 53.403 A 10.414 10.414 0 0 0 37.3 53 L 37.3 48 L 47.5 48.7 Z"
      id="0"
      vector-effect="non-scaling-stroke"
    /><path
      d="M 78.7 42.3 L 52.5 42.3 L 52.5 33.1 L 78.7 33.1 L 78.7 42.3 Z"
      id="1"
      vector-effect="non-scaling-stroke"
    /><path
      d="M 121.5 54.4 L 125.8 62.1 A 25.394 25.394 0 0 1 113.582 67.466 A 34.63 34.63 0 0 1 108 67.9 A 27.305 27.305 0 0 1 100.756 66.99 A 19.811 19.811 0 0 1 91.15 61.15 A 21.399 21.399 0 0 1 86.736 53.405 Q 85.651 50.16 85.244 46.203 A 48.963 48.963 0 0 1 85 41.2 A 39.316 39.316 0 0 1 85.688 33.59 Q 86.552 29.217 88.5 25.851 A 19.731 19.731 0 0 1 92.05 21.35 A 25.414 25.414 0 0 1 98.809 16.689 A 21.522 21.522 0 0 1 107.95 14.7 Q 116.8 14.7 124.4 18.8 L 124.4 31.8 L 115.2 32.5 L 115.2 27.7 A 5.68 5.68 0 0 0 115.086 26.512 Q 114.728 24.843 113.25 24.35 Q 111.3 23.7 109.2 23.7 Q 97.1 23.7 97.1 40.8 Q 97.1 46.378 98.478 50.32 A 15.725 15.725 0 0 0 100.3 54 A 10.228 10.228 0 0 0 107.728 58.585 A 14.011 14.011 0 0 0 109.55 58.7 A 18.161 18.161 0 0 0 117.24 56.935 A 25.267 25.267 0 0 0 121.5 54.4 Z"
      id="2"
      vector-effect="non-scaling-stroke"
    /><path
      d="M 131.521 35.198 A 41.98 41.98 0 0 0 131.1 41.3 Q 131.1 48.532 132.871 53.827 A 21.469 21.469 0 0 0 137 61.25 A 18.9 18.9 0 0 0 146.427 67.128 A 26.033 26.033 0 0 0 153.35 68 A 29.883 29.883 0 0 0 154.482 67.979 A 22.314 22.314 0 0 0 170.5 60.9 A 21.228 21.228 0 0 0 174.074 55.727 Q 175.77 52.309 176.546 47.971 A 45.346 45.346 0 0 0 177.2 40 A 50.747 50.747 0 0 0 177.184 38.703 Q 177.113 35.929 176.734 33.481 A 29.107 29.107 0 0 0 175.55 28.55 Q 174.545 25.595 173.279 23.493 A 14.422 14.422 0 0 0 171.55 21.15 A 14.64 14.64 0 0 0 170.811 20.405 Q 168.583 18.31 165.05 16.65 A 17.17 17.17 0 0 0 163.851 16.142 Q 160.06 14.7 154.9 14.7 Q 146.3 14.7 139.2 20.1 Q 135.5 23 133.3 28.45 A 25.396 25.396 0 0 0 133.002 29.226 Q 131.995 31.976 131.521 35.198 Z M 154.1 59.2 A 9.071 9.071 0 0 0 162.762 53.936 Q 164.772 50.018 164.977 43.185 A 53.011 53.011 0 0 0 165 41.6 Q 165 33.25 162.843 28.685 A 13.618 13.618 0 0 0 162.55 28.1 Q 160.411 24.084 155.757 23.574 A 12.92 12.92 0 0 0 154.35 23.5 A 11.81 11.81 0 0 0 150.905 23.974 A 8.687 8.687 0 0 0 145.9 27.9 A 16.279 16.279 0 0 0 144.115 32.137 Q 143.572 34.12 143.351 36.485 A 36.813 36.813 0 0 0 143.2 39.9 A 59.356 59.356 0 0 0 143.449 45.566 Q 144.338 54.788 148.4 57.6 Q 150.7 59.2 154.1 59.2 Z"
      id="3"
      vector-effect="non-scaling-stroke"
    /><path
      d="M 187.5 24.5 L 183.3 24.2 L 183.3 16.2 L 200.2 16.2 L 200.2 22.7 A 18.111 18.111 0 0 1 206.701 17.055 A 21.278 21.278 0 0 1 207.1 16.85 Q 211.4 14.7 216.4 14.7 A 21.262 21.262 0 0 1 221.167 15.202 Q 224.515 15.972 226.927 17.923 A 12.892 12.892 0 0 1 228.15 19.05 Q 232.3 23.4 232.3 32.1 L 232.3 58.2 L 238 58.5 L 238 66.5 L 214.2 66.5 L 214.2 58.9 L 217.5 58.6 A 6.666 6.666 0 0 0 218.32 58.442 Q 219.208 58.207 219.7 57.75 A 1.745 1.745 0 0 0 220.106 57.151 Q 220.345 56.594 220.39 55.716 A 8.238 8.238 0 0 0 220.4 55.3 L 220.4 34.7 Q 220.4 29.75 219.023 27.109 A 7.183 7.183 0 0 0 218.7 26.55 Q 217.34 24.431 214.03 24.006 A 14.024 14.024 0 0 0 212.25 23.9 A 12.166 12.166 0 0 0 208.962 24.322 A 9.054 9.054 0 0 0 204.7 26.9 Q 201.9 29.9 201.9 34 L 201.9 58.2 L 207.6 58.5 L 207.6 66.5 L 183.8 66.5 L 183.8 58.9 L 187.1 58.6 A 6.666 6.666 0 0 0 187.92 58.442 Q 188.808 58.207 189.3 57.75 A 1.745 1.745 0 0 0 189.706 57.151 Q 189.945 56.594 189.99 55.716 A 8.238 8.238 0 0 0 190 55.3 L 190 27.6 A 5.291 5.291 0 0 0 189.889 26.463 Q 189.528 24.832 188.001 24.554 A 3.603 3.603 0 0 0 187.5 24.5 Z"
      id="4"
      vector-effect="non-scaling-stroke"
    /><path
      d="M 247.5 24.5 L 243.3 24.2 L 243.3 16.2 L 260.2 16.2 L 260.2 22.7 A 18.111 18.111 0 0 1 266.701 17.055 A 21.278 21.278 0 0 1 267.1 16.85 Q 271.4 14.7 276.4 14.7 A 21.262 21.262 0 0 1 281.167 15.202 Q 284.515 15.972 286.927 17.923 A 12.892 12.892 0 0 1 288.15 19.05 Q 292.3 23.4 292.3 32.1 L 292.3 58.2 L 298 58.5 L 298 66.5 L 274.2 66.5 L 274.2 58.9 L 277.5 58.6 A 6.666 6.666 0 0 0 278.32 58.442 Q 279.208 58.207 279.7 57.75 A 1.745 1.745 0 0 0 280.106 57.151 Q 280.345 56.594 280.39 55.716 A 8.238 8.238 0 0 0 280.4 55.3 L 280.4 34.7 Q 280.4 29.75 279.023 27.109 A 7.183 7.183 0 0 0 278.7 26.55 Q 277.34 24.431 274.03 24.006 A 14.024 14.024 0 0 0 272.25 23.9 A 12.166 12.166 0 0 0 268.962 24.322 A 9.054 9.054 0 0 0 264.7 26.9 Q 261.9 29.9 261.9 34 L 261.9 58.2 L 267.6 58.5 L 267.6 66.5 L 243.8 66.5 L 243.8 58.9 L 247.1 58.6 A 6.666 6.666 0 0 0 247.92 58.442 Q 248.808 58.207 249.3 57.75 A 1.745 1.745 0 0 0 249.706 57.151 Q 249.945 56.594 249.99 55.716 A 8.238 8.238 0 0 0 250 55.3 L 250 27.6 A 5.291 5.291 0 0 0 249.889 26.463 Q 249.528 24.832 248.001 24.554 A 3.603 3.603 0 0 0 247.5 24.5 Z"
      id="5"
      vector-effect="non-scaling-stroke"
    /><path
      d="M 341.7 54.1 L 345.5 62.2 A 11.527 11.527 0 0 1 344.07 63.278 Q 342.531 64.278 340.17 65.308 A 49.934 49.934 0 0 1 338.75 65.9 Q 334 67.8 327.9 67.8 A 34.884 34.884 0 0 1 321.229 67.205 Q 314.008 65.796 310 61.05 Q 304.3 54.3 304.3 42.5 A 35.419 35.419 0 0 1 305.544 32.902 A 27.98 27.98 0 0 1 310.8 22.7 A 21.176 21.176 0 0 1 325.132 14.936 A 30.641 30.641 0 0 1 329 14.7 A 25.039 25.039 0 0 1 333.79 15.131 Q 336.685 15.696 338.952 16.999 A 13.87 13.87 0 0 1 340.9 18.35 Q 345.3 22 345.3 28.6 Q 345.3 33 343.4 36.35 A 16.984 16.984 0 0 1 341.127 39.5 A 13.953 13.953 0 0 1 338.7 41.6 A 21.261 21.261 0 0 1 335.413 43.409 A 29.286 29.286 0 0 1 331.9 44.7 A 46.769 46.769 0 0 1 323.825 46.317 A 61.893 61.893 0 0 1 316.8 46.7 A 16.423 16.423 0 0 0 317.468 50.598 A 11.9 11.9 0 0 0 320.1 55.25 A 9.319 9.319 0 0 0 324.045 57.737 Q 326.297 58.5 329.3 58.5 A 18.903 18.903 0 0 0 336.856 56.866 A 26.732 26.732 0 0 0 341.7 54.1 Z M 324.45 37.55 Q 328.1 36.9 331.2 34.65 A 9.239 9.239 0 0 0 332.835 33.161 A 5.825 5.825 0 0 0 334.3 29.3 Q 334.3 24.484 330.561 23.47 A 8.651 8.651 0 0 0 328.3 23.2 A 11.185 11.185 0 0 0 324.394 23.852 Q 321.552 24.904 319.7 27.65 A 19.092 19.092 0 0 0 316.816 34.773 A 24.814 24.814 0 0 0 316.4 38.3 A 59.481 59.481 0 0 0 320.988 38.026 A 45.954 45.954 0 0 0 324.45 37.55 Z"
      id="6"
      vector-effect="non-scaling-stroke"
    /><path
      d="M 388.8 54.4 L 393.1 62.1 A 25.394 25.394 0 0 1 380.882 67.466 A 34.63 34.63 0 0 1 375.3 67.9 A 27.305 27.305 0 0 1 368.056 66.99 A 19.811 19.811 0 0 1 358.45 61.15 A 21.399 21.399 0 0 1 354.036 53.405 Q 352.951 50.16 352.544 46.203 A 48.963 48.963 0 0 1 352.3 41.2 A 39.316 39.316 0 0 1 352.988 33.59 Q 353.852 29.217 355.8 25.851 A 19.731 19.731 0 0 1 359.35 21.35 A 25.414 25.414 0 0 1 366.109 16.689 A 21.522 21.522 0 0 1 375.25 14.7 Q 384.1 14.7 391.7 18.8 L 391.7 31.8 L 382.5 32.5 L 382.5 27.7 A 5.68 5.68 0 0 0 382.386 26.512 Q 382.028 24.843 380.55 24.35 Q 378.6 23.7 376.5 23.7 Q 364.4 23.7 364.4 40.8 Q 364.4 46.378 365.778 50.32 A 15.725 15.725 0 0 0 367.6 54 A 10.228 10.228 0 0 0 375.028 58.585 A 14.011 14.011 0 0 0 376.85 58.7 A 18.161 18.161 0 0 0 384.54 56.935 A 25.267 25.267 0 0 0 388.8 54.4 Z"
      id="7"
      vector-effect="non-scaling-stroke"
    /><path
      d="M 410.5 5.6 L 417 5.6 L 417 16.2 L 430.3 16.2 L 429.3 24.6 L 417 24.6 L 417 50.9 Q 417 55.3 418.6 57.05 A 4.958 4.958 0 0 0 420.715 58.389 Q 421.927 58.8 423.55 58.8 A 11.598 11.598 0 0 0 427.863 57.938 A 15.664 15.664 0 0 0 430.3 56.7 L 433.3 64.4 A 18.623 18.623 0 0 1 426.719 67.254 Q 424.172 67.839 421.216 67.894 A 33.172 33.172 0 0 1 420.6 67.9 A 29.299 29.299 0 0 1 417.298 67.725 Q 415.642 67.536 414.231 67.146 A 15.149 15.149 0 0 1 413 66.75 A 22.506 22.506 0 0 1 411.219 66.007 Q 409.431 65.163 408.4 64.2 A 6.942 6.942 0 0 1 407.166 62.633 Q 406.73 61.892 406.389 60.973 A 13.877 13.877 0 0 1 406.1 60.1 A 37.178 37.178 0 0 1 405.687 58.598 Q 405.33 57.18 405.228 56.177 A 8.669 8.669 0 0 1 405.2 55.85 A 34.634 34.634 0 0 1 405.156 54.984 Q 405.118 53.998 405.105 52.627 A 150.982 150.982 0 0 1 405.1 51.3 L 405.1 24.6 L 398 24.6 L 399 17.3 A 13.1 13.1 0 0 0 401.959 16.724 A 8.664 8.664 0 0 0 406.1 13.95 Q 408.5 11 410.5 5.6 Z"
      id="8"
      vector-effect="non-scaling-stroke"
    /></g></svg>
